<svg width="317" height="50" viewBox="0 0 317 50" fill="none" xmlns="http://www.w3.org/2000/svg">
<path d="M16.232 14.312C21.1813 14.312 24.9573 15.9226 27.56 19.144C30.1627 22.3653 31.464 26.664 31.464 32.04C31.464 35.624 30.8667 38.7493 29.672 41.416C28.4987 44.0826 26.7707 46.1626 24.488 47.656C22.2267 49.128 19.464 49.864 16.2 49.864C11.272 49.864 7.49601 48.2746 4.872 45.096C2.248 41.896 0.936005 37.5653 0.936005 32.104C0.936005 28.6053 1.52267 25.5226 2.696 22.856C3.89067 20.168 5.62934 18.0773 7.91201 16.584C10.1947 15.0693 12.968 14.312 16.232 14.312ZM16.232 19.88C13.6507 19.88 11.7093 20.872 10.408 22.856C9.10667 24.8186 8.45601 27.9013 8.45601 32.104C8.45601 36.3066 9.09601 39.4 10.376 41.384C11.6773 43.3466 13.6187 44.328 16.2 44.328C18.7813 44.328 20.712 43.336 21.992 41.352C23.2933 39.368 23.944 36.264 23.944 32.04C23.944 27.88 23.304 24.8186 22.024 22.856C20.744 20.872 18.8133 19.88 16.232 19.88Z" fill="#6C63FF"/>
<path d="M38.511 49V15.208H44.687L45.231 19.592C46.639 17.8853 48.303 16.584 50.223 15.688C52.143 14.7706 54.1163 14.312 56.143 14.312C59.3003 14.312 61.6577 15.1973 63.215 16.968C64.7937 18.7386 65.583 21.2026 65.583 24.36V49H58.415V27.912C58.415 24.9893 58.1163 22.9093 57.519 21.672C56.943 20.4133 55.631 19.784 53.583 19.784C51.9403 19.784 50.4363 20.296 49.071 21.32C47.727 22.3226 46.5963 23.464 45.679 24.744V49H38.511Z" fill="#6C63FF"/>
<path d="M80.278 34.408C80.4913 37.8853 81.462 40.4026 83.19 41.96C84.9393 43.5173 87.0407 44.296 89.494 44.296C91.1367 44.296 92.662 44.04 94.07 43.528C95.4993 43.016 96.9287 42.2906 98.358 41.352L101.462 45.64C99.8833 46.92 98.038 47.944 95.926 48.712C93.814 49.48 91.5527 49.864 89.142 49.864C85.622 49.864 82.646 49.1173 80.214 47.624C77.8033 46.1306 75.9687 44.0506 74.71 41.384C73.4727 38.7173 72.854 35.6346 72.854 32.136C72.854 28.744 73.4727 25.7146 74.71 23.048C75.9473 20.36 77.718 18.2373 80.022 16.68C82.326 15.1013 85.078 14.312 88.278 14.312C92.758 14.312 96.2993 15.816 98.902 18.824C101.526 21.832 102.838 25.96 102.838 31.208C102.838 31.784 102.817 32.36 102.774 32.936C102.753 33.4906 102.721 33.9813 102.678 34.408H80.278ZM88.342 19.624C86.102 19.624 84.246 20.424 82.774 22.024C81.302 23.624 80.4593 26.12 80.246 29.512H95.894C95.83 26.3333 95.1473 23.8906 93.846 22.184C92.566 20.4773 90.7313 19.624 88.342 19.624Z" fill="#6C63FF"/>
<path d="M122.429 44.36C124.669 44.36 126.45 43.9653 127.773 43.176C129.096 42.3653 129.757 41.256 129.757 39.848C129.757 38.9306 129.565 38.152 129.181 37.512C128.797 36.872 128.029 36.2746 126.877 35.72C125.725 35.1653 123.976 34.5893 121.629 33.992C119.41 33.416 117.458 32.7333 115.773 31.944C114.109 31.1546 112.818 30.1306 111.901 28.872C110.984 27.6133 110.525 25.992 110.525 24.008C110.525 21.1066 111.73 18.7706 114.141 17C116.573 15.208 119.869 14.312 124.029 14.312C126.866 14.312 129.341 14.6853 131.453 15.432C133.565 16.1786 135.368 17.1066 136.861 18.216L133.853 22.728C132.53 21.8533 131.08 21.1386 129.501 20.584C127.944 20.0293 126.184 19.752 124.221 19.752C121.938 19.752 120.296 20.0933 119.293 20.776C118.312 21.4586 117.821 22.3653 117.821 23.496C117.821 24.3493 118.066 25.0533 118.557 25.608C119.069 26.1626 119.944 26.6853 121.181 27.176C122.418 27.6666 124.168 28.2213 126.429 28.84C128.626 29.4373 130.536 30.1413 132.157 30.952C133.8 31.7626 135.069 32.84 135.965 34.184C136.882 35.5066 137.341 37.2346 137.341 39.368C137.341 41.8 136.637 43.7946 135.229 45.352C133.821 46.888 131.986 48.0293 129.725 48.776C127.464 49.5013 125.032 49.864 122.429 49.864C119.293 49.864 116.584 49.416 114.301 48.52C112.018 47.6026 110.098 46.4613 108.541 45.096L112.349 40.744C113.672 41.8106 115.186 42.6853 116.893 43.368C118.6 44.0293 120.445 44.36 122.429 44.36Z" fill="#6C63FF"/>
<path d="M162.244 43.976C163.823 43.976 165.295 43.6986 166.66 43.144C168.025 42.5893 169.327 41.8853 170.564 41.032L173.892 45.64C172.42 46.8986 170.628 47.9226 168.516 48.712C166.425 49.48 164.26 49.864 162.02 49.864C158.564 49.864 155.599 49.1386 153.124 47.688C150.671 46.216 148.793 44.168 147.492 41.544C146.212 38.8986 145.572 35.8053 145.572 32.264C145.572 28.8293 146.223 25.768 147.524 23.08C148.847 20.3706 150.745 18.2373 153.22 16.68C155.695 15.1013 158.671 14.312 162.148 14.312C166.671 14.312 170.575 15.6666 173.86 18.376L170.564 22.888C169.241 21.9706 167.887 21.2773 166.5 20.808C165.113 20.3173 163.705 20.072 162.276 20.072C159.588 20.072 157.401 21.0533 155.716 23.016C154.031 24.9786 153.188 28.0613 153.188 32.264C153.188 36.488 154.041 39.496 155.748 41.288C157.455 43.08 159.62 43.976 162.244 43.976Z" fill="#6C63FF"/>
<path d="M188.939 0.935974V19.336C190.304 17.672 191.894 16.424 193.707 15.592C195.542 14.7386 197.44 14.312 199.403 14.312C202.582 14.312 204.95 15.1973 206.507 16.968C208.064 18.7386 208.843 21.2026 208.843 24.36V49H201.675V25.48C201.675 23.4533 201.291 22.0026 200.523 21.128C199.755 20.232 198.518 19.784 196.811 19.784C195.211 19.784 193.728 20.3066 192.363 21.352C190.998 22.376 189.856 23.5386 188.939 24.84V49H181.771V1.70398L188.939 0.935974Z" fill="#6C63FF"/>
<path d="M231.122 14.312C236.071 14.312 239.847 15.9226 242.45 19.144C245.053 22.3653 246.354 26.664 246.354 32.04C246.354 35.624 245.757 38.7493 244.562 41.416C243.389 44.0826 241.661 46.1626 239.378 47.656C237.117 49.128 234.354 49.864 231.09 49.864C226.162 49.864 222.386 48.2746 219.762 45.096C217.138 41.896 215.826 37.5653 215.826 32.104C215.826 28.6053 216.413 25.5226 217.586 22.856C218.781 20.168 220.519 18.0773 222.802 16.584C225.085 15.0693 227.858 14.312 231.122 14.312ZM231.122 19.88C228.541 19.88 226.599 20.872 225.298 22.856C223.997 24.8186 223.346 27.9013 223.346 32.104C223.346 36.3066 223.986 39.4 225.266 41.384C226.567 43.3466 228.509 44.328 231.09 44.328C233.671 44.328 235.602 43.336 236.882 41.352C238.183 39.368 238.834 36.264 238.834 32.04C238.834 27.88 238.194 24.8186 236.914 22.856C235.634 20.872 233.703 19.88 231.122 19.88Z" fill="#6C63FF"/>
<path d="M266.937 14.312C271.886 14.312 275.662 15.9226 278.265 19.144C280.868 22.3653 282.169 26.664 282.169 32.04C282.169 35.624 281.572 38.7493 280.377 41.416C279.204 44.0826 277.476 46.1626 275.193 47.656C272.932 49.128 270.169 49.864 266.905 49.864C261.977 49.864 258.201 48.2746 255.577 45.096C252.953 41.896 251.641 37.5653 251.641 32.104C251.641 28.6053 252.228 25.5226 253.401 22.856C254.596 20.168 256.334 18.0773 258.617 16.584C260.9 15.0693 263.673 14.312 266.937 14.312ZM266.937 19.88C264.356 19.88 262.414 20.872 261.113 22.856C259.812 24.8186 259.161 27.9013 259.161 32.104C259.161 36.3066 259.801 39.4 261.081 41.384C262.382 43.3466 264.324 44.328 266.905 44.328C269.486 44.328 271.417 43.336 272.697 41.352C273.998 39.368 274.649 36.264 274.649 32.04C274.649 27.88 274.009 24.8186 272.729 22.856C271.449 20.872 269.518 19.88 266.937 19.88Z" fill="#6C63FF"/>
<path d="M304.064 1.63998V39.784C304.064 41.3413 304.533 42.4506 305.472 43.112C306.432 43.752 307.669 44.072 309.184 44.072C310.144 44.072 311.061 43.976 311.936 43.784C312.832 43.5706 313.696 43.2933 314.528 42.952L316.352 47.944C315.349 48.456 314.112 48.904 312.64 49.288C311.189 49.672 309.525 49.864 307.648 49.864C304.256 49.864 301.611 48.904 299.712 46.984C297.835 45.064 296.896 42.4506 296.896 39.144V6.91998H286.688V1.63998H304.064Z" fill="#6C63FF"/>
</svg>
